<svg version="1.1" id="Layer_1" xmlns="http://www.w3.org/2000/svg" xmlns:xlink="http://www.w3.org/1999/xlink" x="0px" y="0px"
	 width="100%" viewBox="0 0 178 92" enable-background="new 0 0 178 92" xml:space="preserve">
<path fill="#000000" opacity="1.000000" stroke="none" 
	d="
M1.000000,15.000000 
	C1.000000,10.358070 1.000000,5.716141 1.000000,1.000000 
	C23.687513,1.000000 46.375099,1.000000 69.531342,1.466328 
	C70.000000,6.206405 70.000000,10.480154 70.000000,15.119383 
	C66.758141,15.119383 64.009186,15.119383 61.247307,15.119383 
	C61.247307,19.914570 61.247307,24.321091 61.247307,29.104912 
	C64.229713,29.104912 66.969757,29.104912 70.000000,29.104912 
	C70.000000,37.276703 69.998192,45.067814 70.000488,52.858925 
	C70.002899,61.033337 73.174515,66.130943 81.368233,67.852493 
	C86.976189,69.030762 93.031853,68.078140 98.855606,68.078140 
	C98.855606,62.979450 98.855606,58.679214 98.855606,53.795956 
	C97.278061,54.180859 95.674416,55.137241 94.700424,54.697861 
	C92.314598,53.621586 88.480492,52.078674 88.309967,50.408901 
	C87.593407,43.392658 88.007233,36.260967 88.007233,28.797646 
	C92.334671,28.797646 96.077873,28.797646 99.707733,28.797646 
	C99.707733,23.996206 99.707733,19.591515 99.707733,14.809587 
	C95.675613,14.809587 91.930595,14.809587 88.273476,14.809587 
	C88.136894,14.108328 88.024048,13.795444 88.022789,13.482110 
	C88.006058,9.321443 88.004982,5.160714 88.000000,1.000000 
	C118.240250,1.000000 148.480499,1.000000 179.000000,1.000000 
	C179.000000,18.019876 179.000000,35.041279 178.699051,52.819485 
	C178.001114,53.277977 177.483673,53.059464 177.225235,52.669365 
	C173.503494,47.051895 167.202499,45.238365 161.901443,48.682800 
	C156.460709,52.217983 153.965149,57.853252 157.899414,63.824554 
	C161.232803,68.883865 167.223724,70.615585 173.120087,67.330887 
	C175.229630,66.155716 177.048477,64.458786 179.000000,63.000000 
	C179.000000,72.977043 179.000000,82.954094 179.000000,93.000000 
	C125.645790,93.000000 72.291550,93.000000 18.468658,92.531342 
	C18.000000,82.864677 18.000000,73.666664 18.000000,64.128464 
	C28.359255,71.552315 43.719292,70.745300 51.526810,61.135212 
	C58.056973,53.097385 59.805180,44.074612 57.842796,34.466461 
	C56.086349,25.866646 51.679630,18.492504 42.927944,15.062257 
	C33.789364,11.480365 25.264280,12.438709 17.916842,19.517046 
	C17.786861,19.642265 17.355488,19.454632 16.751369,19.368082 
	C16.751369,17.979889 16.751369,16.566235 16.751369,15.000000 
	C11.291755,15.000000 6.145877,15.000000 1.000000,15.000000 
M129.870773,13.001581 
	C128.305344,13.339931 126.702766,13.559486 125.180489,14.035744 
	C114.625328,17.338022 106.824921,23.477173 104.594673,34.911980 
	C102.608070,45.097622 104.544235,54.319099 112.279335,61.742332 
	C117.395592,66.652313 123.538795,68.697197 130.690475,69.176407 
	C138.159958,69.676926 144.852066,68.841507 151.161072,64.497551 
	C153.751572,62.713902 153.557663,61.386372 151.947830,59.495567 
	C149.209793,56.279678 146.378204,53.143429 143.596054,49.985233 
	C136.324066,55.956963 129.307404,53.961857 125.898354,50.308540 
	C121.563408,45.662983 122.009537,36.751999 126.507812,31.996305 
	C130.848419,27.407299 136.532364,27.739098 143.384155,33.314873 
	C146.858734,28.982912 150.318314,24.669636 153.785889,20.346380 
	C146.407791,14.683739 138.989365,12.530413 129.870773,13.001581 
z"/>
<path fill="#FFFFFF" opacity="1.000000" stroke="none" 
	d="
M1.000000,15.468657 
	C6.145877,15.000000 11.291755,15.000000 16.751369,15.000000 
	C16.751369,16.566235 16.751369,17.979889 16.751369,19.368082 
	C17.355488,19.454632 17.786861,19.642265 17.916842,19.517046 
	C25.264280,12.438709 33.789364,11.480365 42.927944,15.062257 
	C51.679630,18.492504 56.086349,25.866646 57.842796,34.466461 
	C59.805180,44.074612 58.056973,53.097385 51.526810,61.135212 
	C43.719292,70.745300 28.359255,71.552315 18.000000,64.128464 
	C18.000000,73.666664 18.000000,82.864677 18.000000,92.531342 
	C12.359556,93.000000 6.719112,93.000000 1.000000,93.000000 
	C1.000000,67.312485 1.000000,41.624901 1.000000,15.468657 
M28.638609,29.000000 
	C25.744663,30.527014 22.281960,31.488129 20.078779,33.702438 
	C15.885564,37.916828 16.216703,44.960571 20.033035,49.506069 
	C23.706633,53.881554 29.368176,54.877834 34.719341,52.038380 
	C39.859970,49.310635 40.257946,44.619423 40.038898,39.521713 
	C39.758076,32.986263 36.011093,29.106506 28.638609,29.000000 
z"/>
<path fill="#FFFFFF" opacity="1.000000" stroke="none" 
	d="
M87.532059,1.000000 
	C88.004982,5.160714 88.006058,9.321443 88.022789,13.482110 
	C88.024048,13.795444 88.136894,14.108328 88.273476,14.809587 
	C91.930595,14.809587 95.675613,14.809587 99.707733,14.809587 
	C99.707733,19.591515 99.707733,23.996206 99.707733,28.797646 
	C96.077873,28.797646 92.334671,28.797646 88.007233,28.797646 
	C88.007233,36.260967 87.593407,43.392658 88.309967,50.408901 
	C88.480492,52.078674 92.314598,53.621586 94.700424,54.697861 
	C95.674416,55.137241 97.278061,54.180859 98.855606,53.795956 
	C98.855606,58.679214 98.855606,62.979450 98.855606,68.078140 
	C93.031853,68.078140 86.976189,69.030762 81.368233,67.852493 
	C73.174515,66.130943 70.002899,61.033337 70.000488,52.858925 
	C69.998192,45.067814 70.000000,37.276703 70.000000,29.104912 
	C66.969757,29.104912 64.229713,29.104912 61.247307,29.104912 
	C61.247307,24.321091 61.247307,19.914570 61.247307,15.119383 
	C64.009186,15.119383 66.758141,15.119383 70.000000,15.119383 
	C70.000000,10.480154 70.000000,6.206405 70.000000,1.466328 
	C75.688042,1.000000 81.376083,1.000000 87.532059,1.000000 
z"/>
<path fill="#FFFFFF" opacity="1.000000" stroke="none" 
	d="
M179.000000,62.545891 
	C177.048477,64.458786 175.229630,66.155716 173.120087,67.330887 
	C167.223724,70.615585 161.232803,68.883865 157.899414,63.824554 
	C153.965149,57.853252 156.460709,52.217983 161.901443,48.682800 
	C167.202499,45.238365 173.503494,47.051895 177.225235,52.669365 
	C177.483673,53.059464 178.001114,53.277977 178.699051,53.288143 
	C179.000000,56.030594 179.000000,59.061188 179.000000,62.545891 
z"/>
<path fill="#FFFFFF" opacity="1.000000" stroke="none" 
	d="
M130.324127,13.000843 
	C138.989365,12.530413 146.407791,14.683739 153.785889,20.346380 
	C150.318314,24.669636 146.858734,28.982912 143.384155,33.314873 
	C136.532364,27.739098 130.848419,27.407299 126.507812,31.996305 
	C122.009537,36.751999 121.563408,45.662983 125.898354,50.308540 
	C129.307404,53.961857 136.324066,55.956963 143.596054,49.985233 
	C146.378204,53.143429 149.209793,56.279678 151.947830,59.495567 
	C153.557663,61.386372 153.751572,62.713902 151.161072,64.497551 
	C144.852066,68.841507 138.159958,69.676926 130.690475,69.176407 
	C123.538795,68.697197 117.395592,66.652313 112.279335,61.742332 
	C104.544235,54.319099 102.608070,45.097622 104.594673,34.911980 
	C106.824921,23.477173 114.625328,17.338022 125.180489,14.035744 
	C126.702766,13.559486 128.305344,13.339931 130.324127,13.000843 
z"/>
<path fill="#000000" opacity="1.000000" stroke="none" 
	d="
M29.066158,29.000000 
	C36.011093,29.106506 39.758076,32.986263 40.038898,39.521713 
	C40.257946,44.619423 39.859970,49.310635 34.719341,52.038380 
	C29.368176,54.877834 23.706633,53.881554 20.033035,49.506069 
	C16.216703,44.960571 15.885564,37.916828 20.078779,33.702438 
	C22.281960,31.488129 25.744663,30.527014 29.066158,29.000000 
z"/>
</svg>